<?xml version="1.0" standalone="no"?>
<svg xmlns="http://www.w3.org/2000/svg" viewBox="0 0 136.04000000000002 51.964285714285715" width="136.04000000000002" height="51.964285714285715">
<rect fill="none" stroke="#489bfa" stroke-width="3" width="133.04000000000002" height="48.964285714285715" x="1.5" y="1.5"></rect>
<g fill="#f784a2" color="#f784a2" transform="translate(12.001, 12) scale(0.5178572)"><svg width="56.0" height="54.0" x="0.0" y="0.0" viewBox="0 0 56 54"><path fill="currentColor" fill-rule="evenodd" d="M26.367 44.574c-6.093-5.018-18.771-15.446-19.405-24.86-.37-5.5 2.6-9.046 5.506-10.537 3.17-1.626 7.425-1.307 10.342.783 2.782 1.99 3.874 5.46 2.606 8.248a4.847 4.847 0 0 1-2.723 2.542 4.872 4.872 0 0 1-3.722-.129 3.991 3.991 0 0 1-2.09-2.248 3.99 3.99 0 0 1 .106-3.064 3.307 3.307 0 0 1 1.86-1.731 3.291 3.291 0 0 1 2.542.088c.3.135.429.481.294.774a.586.586 0 0 1-.78.294 2.148 2.148 0 0 0-2.847 1.062 2.828 2.828 0 0 0-.077 2.166c.264.71.793 1.274 1.48 1.59a3.68 3.68 0 0 0 2.823.095 3.658 3.658 0 0 0 2.066-1.925c1.039-2.278.105-5.142-2.225-6.803-2.53-1.814-6.368-2.107-9.121-.693-2.571 1.32-5.2 4.484-4.866 9.42.593 8.905 13.007 19.13 18.976 24.043.306.252.587.481.851.704.27-.223.552-.452.857-.704 5.964-4.913 18.384-15.138 18.977-24.042.334-4.93-2.295-8.1-4.866-9.42-2.754-1.41-6.592-1.122-9.122.692-2.33 1.66-3.263 4.525-2.224 6.803a3.658 3.658 0 0 0 2.066 1.925 3.68 3.68 0 0 0 2.823-.094 2.833 2.833 0 0 0 1.48-1.59 2.828 2.828 0 0 0-.078-2.167 2.149 2.149 0 0 0-2.846-1.062.586.586 0 0 1-.78-.294.582.582 0 0 1 .293-.774 3.325 3.325 0 0 1 4.402 1.643c.44.975.482 2.06.105 3.064a3.988 3.988 0 0 1-2.089 2.248 4.87 4.87 0 0 1-6.445-2.412c-1.274-2.788-.175-6.257 2.607-8.247 2.916-2.084 7.172-2.407 10.342-.78 2.905 1.49 5.875 5.042 5.506 10.541-.634 9.415-13.313 19.851-19.405 24.87-.447.37-1.6 1.359-1.6 1.359s-1.153-1.008-1.6-1.378m23.92-38.557c-2.83-2.747-6.839-4.18-10.983-3.944-3.909.229-8.293 2.4-11.34 5.582-3.034-3.164-7.56-5.406-11.457-5.63-4.15-.24-8.135 1.204-10.964 3.945C2.425 9.005.858 13.424 1.01 18.76c.353 12.214 15.502 24.54 23.637 31.161 1.168.951 2.178 1.767 2.958 2.443a.59.59 0 0 0 .763 0 149.98 149.98 0 0 1 2.841-2.354c8.118-6.633 23.232-18.977 23.584-31.25.159-5.318-1.403-9.726-4.508-12.743"></path></svg></g><line x1="51.501" y1="0" x2="51.501" y2="100%" stroke="#489bfa" stroke-width="3"></line><path fill="#f784a2" fill-rule="nonzero" d="M2.29 6.10Q1.99 5.98 1.91 5.86Q1.82 5.74 1.82 5.53Q1.82 5.33 1.97 5.23L1.97 5.23Q4.39 5.23 4.63 5.21L4.63 5.21Q4.75 2.59 5.66 1.30Q6.58 0 8.42 0L8.42 0Q9.60 0 10.28 0.70Q10.97 1.39 10.97 2.47L10.97 2.47Q10.97 4.01 9.94 4.85Q8.90 5.69 6.77 6L6.77 6L6.77 13.51Q6.77 15.14 6.41 16.44L6.41 16.44Q6.50 16.54 6.83 16.81Q7.15 17.09 7.27 17.20Q7.39 17.30 7.70 17.57Q8.02 17.83 8.17 17.94Q8.33 18.05 8.64 18.25Q8.95 18.46 9.17 18.55Q9.38 18.65 9.71 18.78Q10.03 18.91 10.32 18.98L10.32 18.98Q11.06 19.13 11.69 19.13L11.69 19.13Q14.06 19.13 15.28 18.01Q16.49 16.90 16.49 14.78L16.49 14.78Q16.51 14.64 16.74 14.64Q16.97 14.64 17.09 14.71L17.09 14.71Q17.45 14.98 17.45 15.89L17.45 15.89Q17.45 17.88 15.74 19.19Q14.04 20.50 11.66 20.50L11.66 20.50Q9.86 20.50 8.52 19.78Q7.18 19.06 5.88 17.81L5.88 17.81Q4.80 19.87 2.76 19.87L2.76 19.87Q1.42 19.87 0.71 19.16Q0 18.46 0 17.30Q0 16.15 0.74 15.41Q1.49 14.66 2.59 14.66Q3.70 14.66 4.56 15.10L4.56 15.10Q4.61 14.09 4.61 13.42L4.61 13.42L4.61 6.19Q4.13 6.22 3.36 6.22Q2.59 6.22 2.29 6.10ZM9.86 2.40L9.86 2.40Q9.86 1.82 9.44 1.42Q9.02 1.01 8.34 1.01Q7.66 1.01 7.25 1.88Q6.84 2.76 6.77 4.99L6.77 4.99Q9.86 4.42 9.86 2.40ZM1.08 17.28L1.08 17.28Q1.08 18.86 2.76 18.86L2.76 18.86Q4.10 18.86 4.44 16.44L4.44 16.44Q3.48 15.65 2.71 15.65Q1.94 15.65 1.51 16.08Q1.08 16.51 1.08 17.28ZM22.80 9.94Q22.80 9.22 23.21 8.84Q23.62 8.47 24.19 8.47Q24.77 8.47 25.10 8.81L25.10 8.81L25.10 15.70Q25.10 17.06 25.54 17.76Q25.97 18.46 26.71 18.46L26.71 18.46Q27.46 18.46 28.15 17.59L28.15 17.59Q28.97 16.56 28.97 13.78L28.97 13.78Q28.99 13.63 29.33 13.63L29.33 13.63Q29.76 13.63 29.76 14.90L29.76 14.90Q29.76 16.94 28.88 18.17Q28.01 19.39 26.42 19.39L26.42 19.39Q23.90 19.39 23.11 17.11L23.11 17.11Q22.18 19.39 19.68 19.39L19.68 19.39Q18.19 19.39 17.28 18.49Q16.37 17.59 16.37 15.91L16.37 15.91L16.37 9.94Q16.37 9.22 16.73 8.84Q17.09 8.47 17.64 8.47Q18.19 8.47 18.53 8.81L18.53 8.81L18.53 15.70Q18.53 18.55 19.97 18.55L19.97 18.55Q21.05 18.55 21.92 17.26Q22.80 15.96 22.80 13.61L22.80 13.61L22.80 9.94ZM39.05 14.40L39.05 14.40Q39.55 14.40 39.55 15.10Q39.55 15.79 39.26 16.49Q38.98 17.18 38.44 17.86Q37.90 18.53 36.92 18.96Q35.95 19.39 34.73 19.39L34.73 19.39Q32.04 19.39 30.52 18.04Q28.99 16.68 28.99 14.05Q28.99 11.42 30.34 9.95Q31.68 8.47 33.77 8.47L33.77 8.47Q35.28 8.47 35.98 9.28Q36.67 10.08 36.67 11.18L36.67 11.18Q36.67 11.78 36.31 12.14Q35.95 12.50 35.62 12.50L35.62 12.50Q34.99 12.50 34.80 12.22L34.80 12.22Q34.94 11.86 34.94 11.18Q34.94 10.51 34.49 9.96Q34.03 9.41 33.38 9.41L33.38 9.41Q32.26 9.41 31.76 10.51Q31.27 11.62 31.27 13.98Q31.27 16.34 32.20 17.40Q33.12 18.46 34.78 18.46Q36.43 18.46 37.56 17.44Q38.69 16.42 38.69 14.54L38.69 14.54Q38.71 14.40 39.05 14.40ZM38.88 6.12Q38.47 5.71 38.47 5.11Q38.47 4.51 38.88 4.09Q39.29 3.67 39.89 3.67Q40.49 3.67 40.91 4.09Q41.33 4.51 41.33 5.11Q41.33 5.71 40.91 6.12Q40.49 6.53 39.89 6.53Q39.29 6.53 38.88 6.12ZM38.78 9.94Q38.78 9.22 39.14 8.84Q39.50 8.47 40.06 8.47Q40.61 8.47 40.94 8.81L40.94 8.81L40.94 15.70Q40.94 17.06 41.47 17.76Q42 18.46 42.91 18.46Q43.82 18.46 44.62 17.35Q45.41 16.25 45.41 13.78L45.41 13.78Q45.46 13.63 45.77 13.63L45.77 13.63Q46.20 13.63 46.20 14.90L46.20 14.90Q46.20 16.75 45.19 18.07Q44.18 19.39 42.62 19.39L42.62 19.39Q40.68 19.39 39.73 18.24Q38.78 17.09 38.78 14.98L38.78 14.98L38.78 9.94ZM55.54 13.92L55.54 13.92Q56.04 13.92 56.04 14.69L56.04 14.69Q56.04 16.46 54.80 17.93Q53.57 19.39 51.05 19.39Q48.53 19.39 47.00 18.04Q45.48 16.68 45.48 14.05Q45.48 11.42 46.82 9.95Q48.17 8.47 50.26 8.47L50.26 8.47Q51.77 8.47 52.46 9.28Q53.16 10.08 53.16 11.18L53.16 11.18Q53.16 12.98 51.66 14.17Q50.16 15.36 47.83 15.36L47.83 15.36Q48.05 16.90 48.95 17.68Q49.85 18.46 51.32 18.46Q52.80 18.46 53.99 17.34Q55.18 16.22 55.18 14.06L55.18 14.06Q55.20 13.92 55.54 13.92ZM47.76 14.26L47.76 14.26L47.76 14.47Q49.25 14.28 50.34 13.54Q51.43 12.79 51.43 11.33L51.43 11.33Q51.43 10.39 51.02 9.90Q50.62 9.41 49.87 9.41L49.87 9.41Q48.74 9.41 48.25 10.51Q47.76 11.62 47.76 14.26Z" transform="translate(65.001 15.735)"></path></svg>